<svg xmlns="http://www.w3.org/2000/svg" viewBox="0 0 114.48 114.48"><defs><style>.cls-1{fill:#0c484e;}.cls-2{fill:#07ffc0;}</style></defs><title>logo</title><g id="Layer_2" data-name="Layer 2"><g id="Layer_1-2" data-name="Layer 1"><circle class="cls-1" cx="57.24" cy="57.24" r="57.24"/><path class="cls-2" d="M102.92,41.23a1.25,1.25,0,0,0-1.71-.45,59.85,59.85,0,0,1-5.72,3.62,37.85,37.85,0,0,1-4,2c0-.11-.08-.22-.12-.33a5.06,5.06,0,0,0-2.6-2.85,4.59,4.59,0,0,0-1.08-.31,1.29,1.29,0,0,0-.45-.48,6.09,6.09,0,0,0-4.2-.56,8.68,8.68,0,0,0-3.85,1.53l0,0a.13.13,0,0,0-.06,0,8.55,8.55,0,0,0-2.25,2.48,4.22,4.22,0,0,0-.37.81l-.53.79A8.43,8.43,0,0,1,72.7,50.4a6.79,6.79,0,0,1-3.62.73H69l-.11,0L68.4,51l-.5-.14-.24-.09a.09.09,0,0,0-.06,0,5.41,5.41,0,0,1-.64-.35,18.33,18.33,0,0,0,2.09-2,14.08,14.08,0,0,0,3.27-8.83c0-1.73-.37-3.66-2-4.59a4.67,4.67,0,0,0-4.74.47,9.8,9.8,0,0,0-4.16,9.06A12.33,12.33,0,0,0,63.19,50c-2.38,1.44-5.44,2.29-7.93.88l-.17-.11A32.44,32.44,0,0,0,58,45.11a19.35,19.35,0,0,0,1.52-4.92,5.58,5.58,0,0,0-1-4.38,3.8,3.8,0,0,0-4.95-.55,8.55,8.55,0,0,0-3.18,4.52,13,13,0,0,0,.29,9.6,7.94,7.94,0,0,0,1.08,1.72A9.88,9.88,0,0,1,49,53.27a8.69,8.69,0,0,1-3.92,1.07,5.73,5.73,0,0,1-3.67-1.09,4.3,4.3,0,0,1-.54-.51l0,0a46.5,46.5,0,0,0,3-3.9,16.74,16.74,0,0,0,2-3.65c.36-1,.47-2.35-.49-3.07-1.59-1.19-3.7-.43-5.08.68a9.16,9.16,0,0,0-2.94,4.38,7.39,7.39,0,0,0,.46,5.36,12.44,12.44,0,0,1-1.11,1.07,3.63,3.63,0,0,1-.87.57,1.81,1.81,0,0,1-.47.13h-.31a1.58,1.58,0,0,1-.31-.09h0l-.19-.1-.07,0s0,0,0,0l0,0h0c0-.06-.11-.11-.16-.16l0,0h0s0,0,0,0a3.73,3.73,0,0,1-.68-1.52c-.08-.32-.15-.65-.21-1l0-.2V51a5.61,5.61,0,0,1-.06-.59,13.55,13.55,0,0,0-.72-4.15,4.79,4.79,0,0,0-2.92-3.08c-1.85-.52-3.42.62-4.48,2A24,24,0,0,0,22.36,50c-.32.73-.62,1.46-.88,2.21a22.32,22.32,0,0,1-1.3-10.58,17.1,17.1,0,0,0,3.23-1.17,14.73,14.73,0,0,0,4.5-3.28c1.28-1.42,2.37-3.47,1.78-5.43a4.08,4.08,0,0,0-4.43-2.72,6.41,6.41,0,0,0-4.66,3.31A20.48,20.48,0,0,0,18,39.56a13.78,13.78,0,0,1-5-.25c-1.57-.37-2.23,2-.66,2.42a16.11,16.11,0,0,0,5.31.36c0,.5-.06,1-.08,1.48a24.78,24.78,0,0,0,3.14,12.8,1.27,1.27,0,0,0,2.29-.3,27.47,27.47,0,0,1,2-5.79,28.34,28.34,0,0,1,1.53-2.75A5.19,5.19,0,0,1,28,45.74a1.23,1.23,0,0,1,.43-.16h.22a1,1,0,0,0,.22,0h0a2.53,2.53,0,0,0,.29.14h0l0,0h0l.16.15.16.17h0a0,0,0,0,1,0,0h0a5.94,5.94,0,0,1,.5.88,9.1,9.1,0,0,1,.3.92,5,5,0,0,1,.12.53s.06.36.07.42c.09.73.08,1.46.17,2.18a7.89,7.89,0,0,0,1.7,4.53,4,4,0,0,0,5,.51,9.31,9.31,0,0,0,1.81-1.52,7.18,7.18,0,0,0,2.41,1.63,10.44,10.44,0,0,0,9.84-1.58,13.78,13.78,0,0,0,2.06-1.9A8.39,8.39,0,0,0,59.26,54,13.42,13.42,0,0,0,64.81,52l0,0a6.89,6.89,0,0,0,1.5,1c3.2,1.5,6.85.55,9.51-1.6a7.27,7.27,0,0,0,.7-.65,6.68,6.68,0,0,0,4.94,3.87,11.55,11.55,0,0,0,3.8.11,8.3,8.3,0,0,0,3.77-1.27,6.31,6.31,0,0,0,2.7-4.44c.78-.3,1.55-.65,2.3-1A52.29,52.29,0,0,0,100.89,44c.54-.36,1.06-.73,1.58-1.1A1.28,1.28,0,0,0,102.92,41.23ZM21.61,36A9,9,0,0,1,24,32.15a2.75,2.75,0,0,1,1.52-.62,1.81,1.81,0,0,1,.76.07,1.39,1.39,0,0,1,.62.31,1.45,1.45,0,0,1,.4,1.31,4.46,4.46,0,0,1-.87,1.84,11.17,11.17,0,0,1-3.52,2.85,13.15,13.15,0,0,1-2.27,1A21.71,21.71,0,0,1,21.61,36Zm18,14a5.31,5.31,0,0,1,1.06-3.9A6.86,6.86,0,0,1,42,44.61l.41-.27.24-.13.11-.05h0l.38-.11.12,0h.32c0,.13-.06.27-.1.39l-.09.25v0s-.06.14-.09.19c-.12.27-.26.53-.4.79-.31.57-.66,1.12-1,1.66a36.65,36.65,0,0,1-2.2,3A2.25,2.25,0,0,1,39.6,50Zm13.68-1a6.82,6.82,0,0,1-.42-.76,8.37,8.37,0,0,1-.57-1.77,8.67,8.67,0,0,1-.21-1.83,11.4,11.4,0,0,1,.62-4A5.93,5.93,0,0,1,55,37.3a1.87,1.87,0,0,1,.66-.22.65.65,0,0,1,.32,0l.2.06h0l0,0,.1,0,.18.13h0a1.12,1.12,0,0,0,.14.15,2.13,2.13,0,0,1,.16.25l0,.06a.08.08,0,0,0,0,0,1,1,0,0,0,0,.13c0,.15.08.3.11.45l0,.15v.06c0,.34,0,.68,0,1a4.3,4.3,0,0,1-.1.72,9.09,9.09,0,0,1-.25,1,34,34,0,0,1-1.75,4.45A25.8,25.8,0,0,1,53.28,49Zm12-.45a9.57,9.57,0,0,1-1-2.43c-.08-.32-.16-.65-.21-1a3.06,3.06,0,0,1-.06-.38c0-.19,0-.39-.05-.58a9.13,9.13,0,0,1,.11-2,7.16,7.16,0,0,1,1.65-3.55,5.36,5.36,0,0,1,1.61-1.29,2.37,2.37,0,0,1,.69-.27l.25-.06h.51l.17,0h0l.17.09.06,0,.1.1c.16.15.1.07.24.31l.09.18s0,0,0,0v0a3.45,3.45,0,0,1,.12.43,5.42,5.42,0,0,1,.08,1,11.89,11.89,0,0,1-.72,4.1A9.19,9.19,0,0,1,68,45.68c-.08.13-.16.25-.25.37s-.11.16-.2.27A16.36,16.36,0,0,1,65.24,48.54Zm23.31,1.94a4.2,4.2,0,0,1-2.16,1.4,9.47,9.47,0,0,1-2.93.36,6.43,6.43,0,0,1-1.31-.12,7.49,7.49,0,0,1-1.25-.39,6.55,6.55,0,0,1-.58-.32l-.27-.17h0l0,0h0l0,0a3.84,3.84,0,0,1-.46-.44,1.2,1.2,0,0,0-.16-.17v0c-.06-.08-.11-.17-.17-.26a3.24,3.24,0,0,1-.39-2.52l.6-.89a9.68,9.68,0,0,1,.74-1l.19-.21.2-.2h0l0,0h.06a6,6,0,0,1,2.74-.81h.06a3.63,3.63,0,0,0-.14,3.56c.79,1.59,2.69,2,4.31,1.83A11.38,11.38,0,0,0,89,49.77,3.06,3.06,0,0,1,88.55,50.48Zm.15-3.2-.57.12-.27.05-.14,0h-.09a8.85,8.85,0,0,1-.89,0l-.3,0h0l-.36-.07-.16-.05h0l-.05,0s-.08,0-.08-.05a.23.23,0,0,0-.11-.07l0,0a.19.19,0,0,0-.07-.08l0,0c-.07-.06-.09-.15,0-.07L85.45,47v0h0a.27.27,0,0,1,0-.08h0c0-.12-.06-.57-.06-.22,0-.07,0-.15,0-.22a.07.07,0,0,0,0,0h0l0-.07.06-.22s0,0,0-.05v0l.07-.11s0,0,0,0,0,0,0,0a1.37,1.37,0,0,0,.17-.17h0c.07,0,.16-.09.23-.15l.1,0h0l.15-.06.31-.08.06,0h.65l.21.05.35.12h0l.23.12.1.07s0,0,0,0a3.41,3.41,0,0,1,1,1.47Z"/><path class="cls-2" d="M29.26,45.79h0Z"/><path class="cls-2" d="M29.58,46.13h0Z"/><polygon class="cls-2" points="34.18 53.79 34.18 53.8 34.17 53.79 34.18 53.79"/><path class="cls-2" d="M75,85a.63.63,0,0,1-.63-.62V63.8a.63.63,0,0,1,1.26,0V84.39A.63.63,0,0,1,75,85Z"/><path class="cls-2" d="M86.38,85H82a.63.63,0,0,1,0-1.25h3.76V80.31H80.12a.63.63,0,0,1-.63-.62V63.8a.63.63,0,0,1,1.25,0V79.06h5.64a.63.63,0,0,1,.63.63v4.7A.63.63,0,0,1,86.38,85Z"/><path class="cls-2" d="M22.17,82.33a.63.63,0,0,1-.37-.12c-3.76-2.76-3.58-9-2.92-11.41.37-1.35,2.6-8.07,10.45-8.07,8.41,0,10.36,5.56,10.44,5.8a.63.63,0,0,1-1.19.4h0c-.07-.21-1.78-5-9.25-5-6.94,0-8.91,6-9.24,7.15a13.15,13.15,0,0,0-.15,5.1,7.57,7.57,0,0,0,2.6,5,.62.62,0,0,1,.14.87A.64.64,0,0,1,22.17,82.33Z"/><path class="cls-2" d="M30.22,85.46a.63.63,0,0,1,0-1.25c2.25,0,6.22-1.11,8-4.16a18.43,18.43,0,0,0,1.88-6.67H30.85v3h3.63a.63.63,0,0,1,0,1.25H30.22A.63.63,0,0,1,29.6,77V72.75a.63.63,0,0,1,.62-.63H40.74a.63.63,0,0,1,.45.2.65.65,0,0,1,.18.46,20.54,20.54,0,0,1-2.1,7.89C37.39,84,33.26,85.46,30.22,85.46Z"/><path class="cls-2" d="M49.69,85H46.4a.63.63,0,1,1,0-1.25h2.66V64.65H45v6.54a.63.63,0,0,1-1.26,0V64a.63.63,0,0,1,.63-.63h5.37a.63.63,0,0,1,.63.63V84.39A.63.63,0,0,1,49.69,85Z"/><path class="cls-2" d="M54.61,85a.63.63,0,0,1-.63-.62V64a.63.63,0,0,1,.63-.63h9A6,6,0,0,1,70,69.84a.63.63,0,1,1-1.25,0c0-3.25-1.94-5.19-5.19-5.19H55.24V84.39A.63.63,0,0,1,54.61,85Z"/><path class="cls-2" d="M71.39,85H65.13a.64.64,0,0,1-.53-.28l-4.22-6.5v6.16a.63.63,0,0,1-1.25,0V76.11a.62.62,0,0,1,.45-.6.61.61,0,0,1,.7.26l5.19,8h4.68l-3.59-4.87A.62.62,0,0,1,66.7,78a.61.61,0,0,1,.87.13L71.9,84a.63.63,0,0,1-.51,1Z"/><path class="cls-2" d="M61.77,73.6a.63.63,0,1,1,0-1.25,1.88,1.88,0,0,0,1.42-.49,1.93,1.93,0,0,0,.42-1.29s0,0,0-.06c0-1.37-.51-1.61-1.61-1.61H60.38v.72a.63.63,0,1,1-1.25,0V68.28a.63.63,0,0,1,.63-.63H62c1.92,0,2.86.93,2.87,2.84a3.17,3.17,0,0,1-.74,2.21A3,3,0,0,1,61.77,73.6Z"/><path class="cls-2" d="M29.9,80.22a6.75,6.75,0,0,1-2.29-.41,5.47,5.47,0,0,1-3.29-3.14,6.94,6.94,0,0,1,.49-5.84,6.06,6.06,0,0,1,5.6-3.13.58.58,0,1,1-.1,1.16,4.83,4.83,0,0,0-4.39,2.51,5.85,5.85,0,0,0-.44,4.89,4.27,4.27,0,0,0,2.58,2.46,5.07,5.07,0,0,0,3.21.13.63.63,0,0,1,.79.37.58.58,0,0,1-.39.74A6.06,6.06,0,0,1,29.9,80.22Z"/><path class="cls-2" d="M97.06,54.75a65.32,65.32,0,0,0-3.73,17.76c-.17,2-.28,4-.36,6a1.27,1.27,0,0,0,1.25,1.26,1.29,1.29,0,0,0,1.26-1.26A80.23,80.23,0,0,1,98,60q.64-2.31,1.5-4.54a1.27,1.27,0,0,0-.87-1.55,1.29,1.29,0,0,0-1.55.88Z"/><path class="cls-2" d="M94.19,85.75a1.57,1.57,0,1,0-1.57-1.57,1.59,1.59,0,0,0,1.57,1.57Z"/></g></g></svg>