<svg id="Avantime-logotyp-white" xmlns="http://www.w3.org/2000/svg" width="560" height="57.514" viewBox="0 0 560 57.514">
  <path id="Path_1" data-name="Path 1" d="M24.847,0H35.315L60.288,57.45H46.036L41.054,45.279H18.73L13.937,57.45H0ZM29.7,16.712l-7,17.91H36.766Z" fill="#185277"/>
  <path id="Path_2" data-name="Path 2" d="M109.1,0h14.441l14.189,37.649h.189L152.361,0H165.92L142.208,57.45H132.055Z" transform="translate(-40.298)" fill="#185277"/>
  <path id="Path_3" data-name="Path 3" d="M237.484,0h10.469l25.036,57.45H258.736l-4.982-12.171H231.43L226.637,57.45H212.7ZM242.4,16.712l-7,17.847h14.063Z" transform="translate(-78.565)" fill="#185277"/>
  <path id="Path_4" data-name="Path 4" d="M340.5,0h17.216l24.405,39.919h.189V0h12.676V57.45H378.4L353.365,16.586h-.189V57.45H340.563V0Z" transform="translate(-125.77)" fill="#185277"/>
  <path id="Path_5" data-name="Path 5" d="M485.9,11.225H469.5V0h45.406V11.225h-16.4V57.45H485.9Z" transform="translate(-173.419)" fill="#185277"/>
  <path id="Path_6" data-name="Path 6" d="M587.2,0h12.676V57.45H587.2Z" transform="translate(-216.894)" fill="#185277"/>
  <path id="Path_7" data-name="Path 7" d="M656.8,0h19.171l13.243,37.459h.189L702.647,0h19.045V57.45H709.079V13.432h-.126L693.818,57.514h-9.649l-14.5-44.081h-.126V57.514H656.863Z" transform="translate(-242.602)" fill="#185277"/>
  <rect id="Rectangle_8" data-name="Rectangle 8" width="50.45" height="9.838" transform="translate(509.55 0.694)" fill="#185277"/>
  <rect id="Rectangle_9" data-name="Rectangle 9" width="50.45" height="9.838" transform="translate(509.55 47.613)" fill="#185277"/>
  <rect id="Rectangle_10" data-name="Rectangle 10" width="50.45" height="9.838" transform="translate(509.55 24.153)" fill="#185277"/>
</svg>
